<svg width="16" height="16" viewBox="0 0 16 16" fill="none" xmlns="http://www.w3.org/2000/svg">
<g clip-path="url(#clip0_432_2)">
<path d="M12.8538 0.145905C12.76 0.0521694 12.6329 -0.000488281 12.5003 -0.000488281C12.3677 -0.000488281 12.2406 0.0521694 12.1468 0.145905L10.4998 1.7929L14.2068 5.49991L15.8538 3.8539C15.9004 3.80746 15.9373 3.75228 15.9625 3.69154C15.9877 3.63079 16.0007 3.56567 16.0007 3.4999C16.0007 3.43414 15.9877 3.36902 15.9625 3.30827C15.9373 3.24753 15.9004 3.19235 15.8538 3.1459L12.8538 0.145905ZM13.4998 6.2069L9.79281 2.4999L3.29281 8.9999H3.49981C3.63241 8.9999 3.75959 9.05258 3.85336 9.14635C3.94713 9.24012 3.99981 9.3673 3.99981 9.4999V9.9999H4.49981C4.63241 9.9999 4.75959 10.0526 4.85336 10.1464C4.94713 10.2401 4.99981 10.3673 4.99981 10.4999V10.9999H5.49981C5.63241 10.9999 5.75959 11.0526 5.85336 11.1464C5.94713 11.2401 5.99981 11.3673 5.99981 11.4999V11.9999H6.49981C6.63241 11.9999 6.75959 12.0526 6.85336 12.1464C6.94713 12.2401 6.99981 12.3673 6.99981 12.4999V12.7069L13.4998 6.2069ZM6.03181 13.6749C6.01076 13.619 5.99993 13.5597 5.99981 13.4999V12.9999H5.49981C5.3672 12.9999 5.24002 12.9472 5.14625 12.8535C5.05248 12.7597 4.99981 12.6325 4.99981 12.4999V11.9999H4.49981C4.3672 11.9999 4.24002 11.9472 4.14625 11.8535C4.05248 11.7597 3.99981 11.6325 3.99981 11.4999V10.9999H3.49981C3.3672 10.9999 3.24002 10.9472 3.14625 10.8535C3.05248 10.7597 2.99981 10.6325 2.99981 10.4999V9.9999H2.49981C2.44003 9.99981 2.38075 9.98897 2.32481 9.96791L2.14581 10.1459C2.09816 10.1939 2.06073 10.251 2.03581 10.3139L0.0358061 15.3139C-0.000564594 15.4048 -0.0094681 15.5043 0.0101994 15.6002C0.0298668 15.6961 0.0772403 15.7841 0.146447 15.8533C0.215653 15.9225 0.303649 15.9698 0.399526 15.9895C0.495402 16.0092 0.594942 16.0003 0.685806 15.9639L5.68581 13.9639C5.74867 13.939 5.80582 13.9016 5.85381 13.8539L6.03181 13.6749Z" fill="#007BFF"/>
</g>
<defs>
<clipPath id="clip0_432_2">
<rect width="16" height="16" fill="white"/>
</clipPath>
</defs>
</svg>
